<svg height="100%" width="100%" id="svg" preserveAspectRatio="none" viewBox="0 0 1440 400" xmlns="http://www.w3.org/2000/svg" class="transition duration-300 ease-in-out delay-150"><path d="M 0,400 C 0,400 0,133 0,133 C 48.388622974963184,115.63622974963181 96.77724594992637,98.27245949926362 152,101 C 207.22275405007363,103.72754050073638 269.2796391752577,126.54639175257734 330,146 C 390.7203608247423,165.45360824742266 450.1041973490428,181.54197349042707 518,174 C 585.8958026509572,166.45802650957293 662.3035714285713,135.28571428571428 720,116 C 777.6964285714287,96.71428571428571 816.6815169366718,89.31516936671576 874,97 C 931.3184830633282,104.68483063328424 1006.9703608247421,127.4536082474227 1073,130 C 1139.029639175258,132.5463917525773 1195.4370397643595,114.87039764359352 1255,112 C 1314.5629602356405,109.12960235640648 1377.2814801178201,121.06480117820324 1440,133 C 1440,133 1440,400 1440,400 Z" stroke="none" stroke-width="0" fill="#f2f2f288" class="transition-all duration-300 ease-in-out delay-150"></path><path d="M 0,400 C 0,400 0,266 0,266 C 46.374631811487475,263.68722385861565 92.74926362297495,261.37444771723125 158,265 C 223.25073637702505,268.62555228276875 307.37757731958766,278.1894329896907 368,270 C 428.62242268041234,261.8105670103093 465.74042709867456,235.86782032400592 518,223 C 570.2595729013254,210.13217967599408 637.6607142857143,210.3392857142857 697,229 C 756.3392857142857,247.6607142857143 807.6167157584683,284.7750368188512 881,287 C 954.3832842415317,289.2249631811488 1049.8724226804122,256.56056701030934 1111,241 C 1172.1275773195878,225.4394329896907 1198.8935935198824,226.98269513991164 1248,234 C 1297.1064064801176,241.01730486008836 1368.5532032400588,253.50865243004418 1440,266 C 1440,266 1440,400 1440,400 Z" stroke="none" stroke-width="0" fill="#f8f9fa" class="transition-all duration-300 ease-in-out delay-150"></path></svg>
