<?xml version="1.0" standalone="no"?><svg xmlns="http://www.w3.org/2000/svg" viewBox="0 0 1440 320"><path fill="#f3f4f5" fill-opacity="1" d="M0,128L30,128C60,128,120,128,180,122.7C240,117,300,107,360,122.7C420,139,480,181,540,186.7C600,192,660,160,720,133.3C780,107,840,85,900,85.3C960,85,1020,107,1080,122.7C1140,139,1200,149,1260,149.3C1320,149,1380,139,1410,133.3L1440,128L1440,0L1410,0C1380,0,1320,0,1260,0C1200,0,1140,0,1080,0C1020,0,960,0,900,0C840,0,780,0,720,0C660,0,600,0,540,0C480,0,420,0,360,0C300,0,240,0,180,0C120,0,60,0,30,0L0,0Z"></path></svg>